<?xml version="1.0" encoding="UTF-8" standalone="no"?>
<svg
   xmlns:dc="http://purl.org/dc/elements/1.1/"
   xmlns:cc="http://creativecommons.org/ns#"
   xmlns:rdf="http://www.w3.org/1999/02/22-rdf-syntax-ns#"
   xmlns:svg="http://www.w3.org/2000/svg"
   xmlns="http://www.w3.org/2000/svg"
   xmlns:sodipodi="http://sodipodi.sourceforge.net/DTD/sodipodi-0.dtd"
   xmlns:inkscape="http://www.inkscape.org/namespaces/inkscape"
   width="85mm"
   height="85mm"
   viewBox="0 0 85 85"
   version="1.1"
   id="svg8"
   inkscape:version="1.0.2 (e86c8708, 2021-01-15)"
   sodipodi:docname="selectCoin.svg">
  <defs
     id="defs2" />
  <sodipodi:namedview
     id="base"
     pagecolor="#ffffff"
     bordercolor="#666666"
     borderopacity="1.0"
     inkscape:pageopacity="0.0"
     inkscape:pageshadow="2"
     inkscape:zoom="0.6436412"
     inkscape:cx="469.22459"
     inkscape:cy="530.14925"
     inkscape:document-units="mm"
     inkscape:current-layer="layer1"
     inkscape:document-rotation="0"
     showgrid="false"
     width="85mm"
     inkscape:window-width="1920"
     inkscape:window-height="1080"
     inkscape:window-x="1280"
     inkscape:window-y="0"
     inkscape:window-maximized="0" />
  <metadata
     id="metadata5">
    <rdf:RDF>
      <cc:Work
         rdf:about="">
        <dc:format>image/svg+xml</dc:format>
        <dc:type
           rdf:resource="http://purl.org/dc/dcmitype/StillImage" />
        <dc:title></dc:title>
      </cc:Work>
    </rdf:RDF>
  </metadata>
  <g
     inkscape:label="Layer 1"
     inkscape:groupmode="layer"
     id="layer1">
    <rect
       style="fill:none;stroke-width:0"
       id="rect139"
       width="20.410715"
       height="143.63095"
       x="48.380955"
       y="15.875" />
    <path
       id="path137"
       style="fill:#aa0000;stroke:#ff0003;stroke-width:2.1;stroke-miterlimit:4;stroke-dasharray:none;stroke-opacity:1"
       inkscape:label="path137"
       d="m 43.802033,2.9853164 c -4.261397,1.1e-4 -8.4954,0.68118 -12.541869,2.01744 0.170745,15.7177406 0.219409,32.2587506 0.219626,45.6318846 18.226473,-0.356852 34.429142,0.10918 51.552407,0.160801 0.51203,-2.571767 0.76992,-5.187651 0.76996,-7.809894 C 83.802237,20.894047 65.893514,2.9853264 43.802012,2.9854064 Z M 22.197669,9.3223963 C 10.734251,16.679437 3.8025786,29.364294 3.8024076,42.985454 c 2.2e-5,2.472235 0.229242,4.939144 0.684715,7.369059 6.6828184,-0.01342 12.2740894,-0.01937 17.9389564,-0.03779 0.267465,-14.103137 0,0 -0.228391,-40.9944067 z M 7.3293246,59.408744 c 3.1847584,7.072269 8.3569784,13.066069 14.8869474,17.251659 -0.04581,-5.70594 0,0 0.09006,-17.223838 l -2.873491,-0.05986 c -5.12389,0.09363 -7.477097,0.06915 -12.1035214,0.03204 z M 39.54493,59.628365 c -2.688686,-0.01691 -5.376117,0.05301 -8.064625,0.05788 0.0011,0.268468 0.01455,0.537091 -5.29e-4,0.805119 0.07366,7.342739 -0.352247,13.664039 -0.333327,20.438549 4.080571,1.36109 8.353974,2.05506 12.655557,2.05517 15.557289,1e-4 29.703371,-9.02009 36.266521,-23.125205 C 66.370817,59.587661 52.004335,59.700154 39.544903,59.62829 Z"
       sodipodi:nodetypes="ccccccccccccccccccccccccccc" />
  </g>
</svg>
